<?xml version="1.0" standalone="no"?> <!DOCTYPE svg PUBLIC "-//W3C//DTD SVG 1.0//EN" "http://www.w3.org/TR/2001/REC-SVG-20010904/DTD/svg10.dtd" > <svg xmlns="http://www.w3.org/2000/svg" width="100%" height="100%">
<defs >
<font id="urwgroteskeligcon_0" horiz-adv-x="591" ><font-face
    font-family="URWGroteskELigCon"
    units-per-em="2048"
    panose-1="0 0 0 0 0 0 0 0 0 0"
    ascent="2130"
    descent="-328"
    alphabetic="0" />
<missing-glyph horiz-adv-x="335" d="M34 0V1365H301V0H34ZM267 34V1331H68V34H267Z" />
<glyph unicode=" " glyph-name="space" horiz-adv-x="335" />
<glyph unicode="!" glyph-name="exclam" horiz-adv-x="464" d="M281 1365V777L257 288H192L172 777V1365H281ZM233 150Q266 150 290 126Q314 102 314 68Q314 34 290 10Q266 -14 232 -14Q198 -14 174 10Q150 34 150 68Q150 102 174 126Q198 150 233 150Z" />
<glyph unicode="&quot;" glyph-name="quotedbl" horiz-adv-x="634" d="M235 818H133L109 1365H260L235 818ZM500 818H398L374 1365H524L500 818Z" />
<glyph unicode="#" glyph-name="numbersign" horiz-adv-x="652" d="M652 1082L635 980H516L407 293H527L510 191H391L361 0H299L329 191H182L152 0H91L121 191H0L16 293H137L246 980H125L141 1082H262L295 1287H356L324 1082H471L503 1287H565L532 1082H652ZM454
980H307L199 293H346L454 980Z" />
<glyph unicode="$" glyph-name="dollar" horiz-adv-x="717" d="M325 84V672Q217 784 192 817Q112 920 112 1074Q112 1327 325 1357V1550H400V1357Q468 1351 515 1315Q605 1247 605 1092Q605 1078 604 1053L495 1014Q497 1052 497 1074Q497 1223 400 1252V759L411
748Q505 655 548 597Q633 481 633 308Q633 97 523 23Q476 -8 400 -18V-212H325V-20Q84 1 84 294Q84 307 84 328L191 365Q193 256 201 214Q224 99 325 84ZM400 86Q524 114 524 302Q524 406 480 485Q454 533 400 592V86ZM325 1253Q221 1230 221 1085Q221 941 325
834V1253Z" />
<glyph unicode="%" glyph-name="percent" horiz-adv-x="936" d="M201 1379Q247 1379 282 1358T332 1302Q347 1264 348 1213V1136L349 1024L348 913Q348 819 346 797T332 746Q300 669 198 669Q97 669 65 746Q50 785 50 835L49 913L48 1024L49 1136Q50 1230 52 1252T65
1302Q97 1379 201 1379ZM197 1308Q140 1308 130 1240Q125 1207 125 1024Q125 830 132 796Q143 740 199 740Q257 740 267 808Q272 840 272 1030Q272 1220 265 1252Q253 1308 197 1308ZM545 1365H620L391 0H316L545 1365ZM741 696Q840 696 872 619Q887 580 888 530V453L889
341L888 230Q888 136 886 114T872 63Q840 -14 738 -14Q636 -14 605 63Q589 102 589 152L588 230L587 341L588 453Q589 547 591 569T605 619Q636 696 741 696ZM737 625Q679 625 669 557Q664 524 664 341Q664 147 671 113Q683 57 738 57Q797 57 807 125Q812 157 812
347Q812 536 805 569Q793 625 737 625Z" />
<glyph unicode="&amp;" glyph-name="ampersand" horiz-adv-x="846" d="M657 651L760 603Q737 351 665 194Q726 125 798 63L697 0Q649 46 605 98Q551 44 513 23Q448 -14 362 -14Q226 -14 150 81Q75 174 75 318Q75 467 149 591Q180 644 259 741Q193 949 193 1081Q193
1221 258 1299Q313 1365 412 1365Q498 1365 547 1316Q602 1262 602 1160Q602 1026 511 904Q477 857 379 739Q484 456 599 288Q642 386 657 651ZM344 845Q495 1019 495 1157Q495 1270 408 1270Q354 1270 325 1220Q300 1177 300 1106Q300 1039 314 969L332 894L344
845ZM298 640Q184 474 184 330Q184 231 227 165Q279 86 372 86Q469 86 541 178Q454 309 407 397Q361 484 298 640Z" />
<glyph unicode="&apos;" glyph-name="quotesingle" horiz-adv-x="369" d="M235 818H133L109 1365H260L235 818Z" />
<glyph unicode="(" glyph-name="parenleft" horiz-adv-x="508" d="M382 1386L432 1341Q325 1198 263 1043Q154 770 154 522Q154 273 263 -2Q324 -159 432 -304L382 -348Q267 -210 203 -79Q61 211 61 522Q61 832 203 1119Q267 1249 382 1386Z" />
<glyph unicode=")" glyph-name="parenright" horiz-adv-x="508" d="M126 -348L75 -304Q182 -161 244 -5Q353 268 353 515Q353 764 244 1040Q183 1196 75 1341L126 1386Q240 1247 304 1116Q446 826 446 515Q446 205 304 -82Q240 -212 126 -348Z" />
<glyph unicode="*" glyph-name="asterisk" horiz-adv-x="725" d="M322 1133L318 1365H407L403 1133L622 1209L650 1124L428 1056L567 871L495 819L362 1009L229 819L157 871L297 1056L75 1124L102 1209L322 1133Z" />
<glyph unicode="+" glyph-name="plus" horiz-adv-x="683" d="M30 561H289V832H387V561H653V471H387V206H289V471H30V561Z" />
<glyph unicode="," glyph-name="comma" horiz-adv-x="377" d="M258 180V0Q222 -106 149 -231H91Q118 -142 133 -81Q148 -18 149 47V180H258Z" />
<glyph unicode="-" glyph-name="hyphen" horiz-adv-x="423" d="M7 594H417V498H7V594Z" />
<glyph unicode="." glyph-name="period" horiz-adv-x="377" d="M189 150Q222 150 246 126Q270 102 270 68Q270 34 246 10Q222 -14 188 -14Q154 -14 130 10Q106 34 106 68Q106 102 130 126Q154 150 189 150Z" />
<glyph unicode="/" glyph-name="slash" horiz-adv-x="479" d="M350 1365H432L130 -328H48L350 1365Z" />
<glyph unicode="0" glyph-name="zero" horiz-adv-x="717" d="M96 356V982Q96 1111 108 1163Q133 1276 221 1325Q281 1358 359 1358Q434 1358 493 1327T582 1241Q613 1183 618 1109Q622 1055 622 982V356Q622 227 610 174Q585 62 497 13Q437 -20 359 -20Q284 -20
225 11T136 97Q105 155 100 229Q96 283 96 356ZM513 438V900Q513 1050 510 1081Q494 1256 359 1256Q247 1256 219 1146Q206 1096 205 1037Q205 991 205 900V438Q205 288 208 257Q224 82 359 82Q471 82 499 191Q512 241 512 301Q513 348 513 438Z" />
<glyph unicode="1" glyph-name="one" horiz-adv-x="717" d="M453 1338V0H344V1084Q266 1051 187 1051Q176 1051 155 1051V1137Q247 1151 294 1182Q341 1214 362 1270Q373 1297 382 1338H453Z" />
<glyph unicode="2" glyph-name="two" horiz-adv-x="717" d="M604 102V0H93V103Q138 209 182 298Q211 354 347 594Q448 772 476 907Q491 978 491 1064Q491 1256 368 1256Q302 1256 269 1201Q244 1158 244 1060Q244 1043 245 984L136 1013Q135 1042 135 1055Q135
1180 170 1250Q199 1308 264 1337Q312 1358 367 1358Q499 1358 559 1259Q600 1192 600 1072Q600 911 546 766Q512 674 417 506Q296 292 262 223Q236 169 211 102H604Z" />
<glyph unicode="3" glyph-name="three" horiz-adv-x="717" d="M227 1023L119 1053Q120 1181 154 1249Q209 1358 348 1358Q487 1358 545 1259Q582 1196 582 1062Q582 904 555 844Q528 785 431 742Q521 722 558 679Q597 631 605 560Q612 501 612 419Q612 245 605
197Q574 -21 356 -21Q224 -21 153 61Q91 133 91 262Q91 290 93 334L202 368Q202 327 202 299Q202 82 354 82Q452 82 481 168Q502 232 502 384Q502 517 482 572Q455 649 342 673Q305 681 242 685V781Q360 783 415 835Q474 889 474 1051Q474 1139 456 1187Q432 1255
352 1255Q268 1255 244 1175Q231 1131 227 1023Z" />
<glyph unicode="4" glyph-name="four" horiz-adv-x="717" d="M516 1338V446H634V344H516V0H407V344H70V425L407 1338H516ZM407 446V702Q407 992 447 1277Q421 1151 330 872L186 446H407Z" />
<glyph unicode="5" glyph-name="five" horiz-adv-x="717" d="M590 1338L578 1236H255L223 826Q296 909 394 909Q460 909 511 876T585 784Q616 703 616 511V356Q616 227 604 175Q579 62 491 13Q432 -20 355 -20Q242 -20 171 49Q102 117 96 260Q95 282 95 330L206
364Q204 319 204 290Q204 193 243 138Q282 82 355 82Q406 82 443 111T493 192Q506 242 507 301Q507 348 507 438V532Q507 670 490 720Q460 806 368 806Q299 806 255 745Q235 719 207 655L118 672L158 1338H590Z" />
<glyph unicode="6" glyph-name="six" horiz-adv-x="717" d="M622 1110L513 1071Q507 1255 365 1255Q267 1255 235 1164Q213 1099 213 941V782Q296 878 403 878Q470 878 522 845T597 754Q621 693 624 620Q626 564 626 480V356Q626 227 614 174Q589 62 501 13Q441
-20 365 -20Q292 -20 233 11T144 97Q113 154 108 229Q104 283 104 356V950Q104 1108 116 1164Q159 1358 364 1358Q596 1358 622 1110ZM213 456V438Q213 288 216 257Q232 82 365 82Q417 82 453 111T503 191Q516 241 516 301Q517 348 517 438V478Q517 631 502 683Q476
776 376 776Q282 776 245 691Q213 619 213 456Z" />
<glyph unicode="7" glyph-name="seven" horiz-adv-x="717" d="M99 1338H618V1256Q444 881 371 590Q323 402 323 87V0H214Q216 244 233 393Q251 547 316 754T496 1236H99V1338Z" />
<glyph unicode="8" glyph-name="eight" horiz-adv-x="717" d="M229 729Q177 760 156 803Q120 878 120 1026Q120 1178 156 1250Q185 1307 253 1337Q302 1358 359 1358Q426 1358 481 1329T561 1250Q597 1179 597 1026Q597 878 561 803Q540 760 489 729Q554 694 582
640Q622 561 622 370Q622 260 613 200T582 97Q547 31 470 0Q418 -20 359 -20Q284 -20 225 11T136 97Q96 174 96 370Q96 477 105 536T136 640Q164 694 229 729ZM356 1256Q277 1256 249 1190Q228 1139 228 1017Q228 896 249 844Q277 778 358 778Q440 778 468 844Q489
895 489 1014Q489 1140 468 1190Q440 1256 356 1256ZM356 676Q305 676 269 647T219 566Q205 511 205 378Q205 247 219 192Q247 82 359 82Q412 82 449 111T499 192Q513 247 513 370Q513 513 499 566Q470 676 356 676Z" />
<glyph unicode="9" glyph-name="nine" horiz-adv-x="717" d="M95 228L204 267Q210 82 352 82Q450 82 482 174Q504 238 504 397V556Q421 460 314 460Q247 460 195 493T120 583Q96 645 93 717Q91 774 91 858V982Q91 1111 103 1163Q128 1276 216 1325Q276 1358 352
1358Q425 1358 484 1327T573 1241Q604 1184 609 1109Q613 1054 613 982V388Q613 229 601 174Q558 -21 353 -21Q121 -21 95 228ZM504 881V900Q504 1050 501 1081Q485 1256 352 1256Q301 1256 264 1227T214 1146Q201 1096 200 1037Q200 990 200 900V860Q200 707 215
655Q241 562 341 562Q384 562 419 585T472 646Q504 719 504 881Z" />
<glyph unicode=":" glyph-name="colon" horiz-adv-x="377" d="M189 150Q222 150 246 126Q270 102 270 68Q270 34 246 10Q222 -14 188 -14Q154 -14 130 10Q106 34 106 68Q106 102 130 126Q154 150 189 150ZM189 1038Q222 1038 246 1014Q270 990 270 956Q270 922
246 898Q222 874 188 874Q154 874 130 898Q106 922 106 956Q106 990 130 1014Q154 1038 189 1038Z" />
<glyph unicode=";" glyph-name="semicolon" horiz-adv-x="377" d="M258 180V0Q222 -106 149 -231H91Q118 -142 133 -81Q148 -18 149 47V180H258ZM203 1038Q236 1038 260 1014Q284 990 284 956Q284 922 260 898Q236 874 202 874Q168 874 144 898Q120 922 120 956Q120
990 144 1014Q169 1038 203 1038Z" />
<glyph unicode="&lt;" glyph-name="less" horiz-adv-x="1051" d="M29 419V490L975 863L1023 788L180 452L1023 119L952 38L29 419Z" />
<glyph unicode="=" glyph-name="equal" horiz-adv-x="683" d="M30 698H653V608H30V698ZM30 424H653V334H30V424Z" />
<glyph unicode="&gt;" glyph-name="greater" horiz-adv-x="1051" d="M1023 483V412L100 31L29 112L872 445L29 780L77 856L1023 483Z" />
<glyph unicode="?" glyph-name="question" horiz-adv-x="631" d="M329 322H259Q259 387 259 394Q259 559 277 630Q293 696 388 894Q421 961 437 1009Q454 1058 454 1117Q454 1284 330 1284Q205 1284 205 1108Q205 1086 207 1051L98 1078Q96 1113 96 1136Q96 1257
165 1325Q226 1386 331 1386Q563 1386 563 1136Q563 1051 529 969Q514 935 431 782Q367 665 348 599Q332 542 331 430Q330 396 329 322ZM302 150Q335 150 359 126Q383 102 383 68Q383 34 359 10Q335 -14 301 -14Q267 -14 243 10Q219 34 219 68Q219 102 243 126Q267
150 302 150Z" />
<glyph unicode="@" glyph-name="at" horiz-adv-x="1387" d="M889 972H988L893 528Q877 454 877 410Q877 368 900 349Q923 329 957 329Q1003 329 1052 363T1136 454Q1217 589 1217 765Q1217 950 1096 1057Q969 1169 767 1169Q490 1169 323 964Q175 782 175 529Q175
288 320 165Q460 48 679 48Q853 48 1002 129Q1058 159 1132 228L1116 150Q1030 77 955 40Q818 -27 657 -27Q529 -27 414 14T217 131Q61 275 61 529Q61 836 254 1033Q450 1234 767 1234Q1023 1234 1177 1099Q1315 978 1315 771Q1315 560 1194 416Q1138 348 1062
309T911 269Q803 269 764 384Q721 332 687 310Q629 271 560 271Q471 271 414 332Q350 400 350 523Q350 701 451 846Q547 984 694 984Q812 984 868 880L889 972ZM711 929Q606 929 537 796Q475 677 475 522Q475 338 591 338Q682 338 742 443Q774 499 803 608T832
783Q832 846 798 890Q768 929 711 929Z" />
<glyph unicode="A" glyph-name="A" horiz-adv-x="713" d="M207 350L142 0H30L304 1365H410L683 0H565L500 350H207ZM229 459H480L417 792Q375 1013 355 1271Q347 1059 295 792L229 459Z" />
<glyph unicode="B" glyph-name="B" horiz-adv-x="787" d="M126 0V1365H309Q475 1365 546 1321Q675 1242 675 1035Q675 912 626 833Q587 769 490 739Q587 719 629 669Q703 580 703 388Q703 161 604 71Q554 25 486 10Q443 0 362 0H126ZM242 1256V786H321Q448 786
495 829Q558 886 558 1021Q558 1156 495 1213Q448 1256 321 1256H242ZM242 677V109H349Q475 109 528 168Q587 235 587 393Q587 551 528 618Q475 677 349 677H242Z" />
<glyph unicode="C" glyph-name="C" horiz-adv-x="720" d="M550 970Q550 1090 536 1154Q510 1276 390 1276Q289 1276 256 1197Q228 1129 228 943V422Q228 236 256 168Q289 89 390 89Q437 89 473 110T524 168Q551 235 551 356Q551 368 550 394L666 357Q667 328 667
314Q667 168 620 89Q585 30 510 2Q453 -20 390 -20Q314 -20 253 9T160 89Q124 148 118 232Q112 309 112 422V943Q112 1130 127 1193Q153 1304 244 1352Q308 1385 390 1385Q466 1385 528 1356T619 1276Q667 1196 667 1049Q667 1035 666 1007L550 970Z" />
<glyph unicode="D" glyph-name="D" horiz-adv-x="804" d="M126 1365H310Q475 1364 542 1325Q660 1256 680 1078Q692 992 693 810V555Q693 373 679 276T631 125Q579 44 489 18Q428 0 310 0H126V1365ZM242 1256V109H323Q416 110 459 129Q551 174 566 327Q576 398
577 610V755Q576 967 566 1038Q551 1191 459 1236Q416 1255 323 1256H242Z" />
<glyph unicode="E" glyph-name="E" horiz-adv-x="658" d="M126 0V1365H578V1256H242V773H564V664H242V109H622V0H126Z" />
<glyph unicode="F" glyph-name="F" d="M126 0V1365H562V1256H242V771H548V662H242V0H126Z" />
<glyph unicode="G" glyph-name="G" horiz-adv-x="777" d="M679 717V0H607L599 52L594 91L592 104Q551 37 502 8T379 -21Q313 -21 253 9T162 87Q124 146 118 231Q112 308 112 423V943Q112 1131 127 1193Q154 1304 247 1352Q312 1385 396 1385Q473 1385 535 1356T630
1276Q679 1197 679 1072Q679 1058 678 1030L562 993Q562 1013 562 1021Q562 1136 534 1197Q498 1276 396 1276Q291 1276 257 1197Q228 1130 228 943V423Q228 235 257 168Q291 89 396 89Q500 89 534 168Q563 235 563 387V608H376V717H679Z" />
<glyph unicode="H" glyph-name="H" horiz-adv-x="833" d="M126 0V1365H242V796H592V1365H708V0H592V687H242V0H126Z" />
<glyph unicode="I" glyph-name="I" horiz-adv-x="367" d="M126 0V1365H242V0H126Z" />
<glyph unicode="J" glyph-name="J" horiz-adv-x="465" d="M339 1365V365Q339 261 331 196Q323 133 288 84T201 12Q139 -14 63 -14Q43 -14 2 -10L-11 105Q29 96 56 96Q133 96 174 135Q223 181 223 353V1365H339Z" />
<glyph unicode="K" glyph-name="K" horiz-adv-x="748" d="M126 0V1365H242V1007Q242 776 238 710L259 752Q335 901 409 1047L575 1365H697L434 869Q382 770 329 699Q384 636 443 528L732 0H598L420 326Q397 367 329 500Q283 586 238 673Q242 580 242 326V0H126Z" />
<glyph unicode="L" glyph-name="L" horiz-adv-x="586" d="M126 0V1365H242V109H570V0H126Z" />
<glyph unicode="M" glyph-name="M" horiz-adv-x="993" d="M126 0V1365H252L416 662Q472 422 496 137Q522 404 582 662L746 1365H867V0H758V576Q759 772 775 1027Q782 1134 785 1204Q734 873 686 673L524 0H462L302 674Q270 808 202 1204Q229 833 228 594V0H126Z" />
<glyph unicode="N" glyph-name="N" horiz-adv-x="819" d="M126 0V1365H235L490 609Q509 551 547 416T615 166Q585 536 585 773V1365H694V0H585L332 755Q298 859 206 1197Q220 1048 226 975Q235 859 235 632V0H126Z" />
<glyph unicode="O" glyph-name="O" horiz-adv-x="791" d="M112 422V943Q112 1131 127 1193Q154 1304 247 1352Q312 1385 395 1385Q473 1385 535 1356T630 1276Q667 1217 673 1133Q679 1057 679 943V422Q679 234 664 172Q637 60 544 13Q479 -20 395 -20Q318 -20
256 9T161 89Q124 148 118 232Q112 308 112 422ZM563 422V943Q563 1130 534 1197Q500 1276 395 1276Q291 1276 257 1197Q228 1130 228 943V422Q228 235 257 168Q291 89 395 89Q500 89 534 168Q563 235 563 422Z" />
<glyph unicode="P" glyph-name="P" horiz-adv-x="722" d="M126 0V1365H307Q403 1365 455 1352Q582 1319 632 1205Q671 1115 671 964Q671 699 544 614Q466 563 321 563H242V0H126ZM242 1256V672H317Q443 672 496 731Q555 797 555 964Q555 1131 496 1197Q443 1256
317 1256H242Z" />
<glyph unicode="Q" glyph-name="Q" horiz-adv-x="791" d="M525 3L759 -144L633 -199L358 -19Q264 -10 199 45Q137 97 121 201Q112 253 112 422V943Q112 1131 127 1193Q154 1304 247 1352Q312 1385 395 1385Q473 1385 535 1356T630 1276Q667 1217 673 1133Q679
1057 679 943V422Q678 220 664 172Q633 50 525 3ZM563 422V943Q563 1130 534 1197Q500 1276 395 1276Q291 1276 257 1197Q228 1130 228 943V422Q228 235 257 167Q291 88 395 88Q500 88 534 167Q563 235 563 422Z" />
<glyph unicode="R" glyph-name="R" horiz-adv-x="761" d="M126 0V1365H321Q486 1365 567 1297Q669 1211 669 998Q669 710 456 639L704 0H581L334 627Q288 624 242 624V0H126ZM242 1256V733H317Q444 733 497 792Q554 856 554 995Q554 1133 497 1197Q444 1256 317
1256H242Z" />
<glyph unicode="S" glyph-name="S" horiz-adv-x="680" d="M58 338L171 376Q173 234 194 178Q227 89 339 89Q506 89 506 310Q506 419 462 495Q425 558 294 694Q175 816 144 865Q86 956 86 1094Q86 1386 346 1386Q468 1386 531 1313Q594 1240 594 1116Q594 1098
592 1067L477 1031Q479 1073 479 1097Q479 1277 340 1277Q202 1277 202 1105Q202 1004 245 931Q269 889 316 843L405 754Q518 644 564 567Q622 469 622 316Q622 -20 335 -20Q57 -20 57 298Q57 313 58 338Z" />
<glyph unicode="T" glyph-name="T" horiz-adv-x="575" d="M558 1365V1256H345V0H229V1256H16V1365H558Z" />
<glyph unicode="U" glyph-name="U" horiz-adv-x="818" d="M242 1365V422Q242 235 271 168Q305 89 409 89Q514 89 548 168Q577 235 577 422V1365H693V422Q693 234 678 172Q651 60 558 13Q493 -20 409 -20Q332 -20 270 9T175 89Q138 148 132 232Q126 308 126 422V1365H242Z" />
<glyph unicode="V" glyph-name="V" horiz-adv-x="682" d="M286 0L44 1365H165L263 805Q319 486 341 109Q349 247 374 457T424 805L525 1365H639L397 0H286Z" />
<glyph unicode="W" glyph-name="W" horiz-adv-x="1010" d="M211 0L52 1365H168L246 709Q254 639 263 465T276 160Q292 362 330 662L451 1365H556L681 662Q729 363 745 160Q747 291 756 460T774 709L849 1365H958L800 0H689L563 688Q519 940 501 1225Q483 923 441
688L321 0H211Z" />
<glyph unicode="X" glyph-name="X" horiz-adv-x="675" d="M16 0L278 723L47 1365H169L255 1120Q314 944 341 834Q358 903 425 1120L508 1365H626L396 723L658 0H536L435 287Q384 432 333 615Q311 520 234 287L134 0H16Z" />
<glyph unicode="Y" glyph-name="Y" horiz-adv-x="673" d="M656 1365L405 573V0H289V573L16 1365H139L276 966Q336 790 351 654Q365 801 416 966L541 1365H656Z" />
<glyph unicode="Z" glyph-name="Z" horiz-adv-x="618" d="M567 109V0H30V95L465 1256H115V1365H588V1272L156 109H567Z" />
<glyph unicode="[" glyph-name="bracketleft" horiz-adv-x="546" d="M183 1365H450V1324L272 1302V-264L450 -287V-328H183V1365Z" />
<glyph unicode="\" glyph-name="backslash" horiz-adv-x="479" d="M48 1365H130L432 -328H350L48 1365Z" />
<glyph unicode="]" glyph-name="bracketright" horiz-adv-x="546" d="M363 -328H96V-287L274 -264V1302L96 1324V1365H363V-328Z" />
<glyph unicode="^" glyph-name="asciicircum" horiz-adv-x="889" d="M187 899L95 929L405 1427H470L794 929L702 899L441 1310L187 899Z" />
<glyph unicode="_" glyph-name="underscore" horiz-adv-x="1111" d="M0 -133H1111V-222H0V-133Z" />
<glyph unicode="`" glyph-name="grave" horiz-adv-x="1024" d="M397 1423L574 1175L504 1158L286 1405L397 1423Z" />
<glyph unicode="a" glyph-name="a" horiz-adv-x="689" d="M208 760L98 788Q100 866 113 906Q161 1059 345 1059Q584 1059 584 796V160Q585 86 619 0H511Q495 37 478 83Q438 33 409 13Q358 -21 287 -21Q176 -21 117 63Q64 138 64 253Q64 351 102 422Q142 496 238
546L475 668V783Q475 956 342 956Q265 956 232 891Q210 847 208 760ZM475 560L326 483Q260 448 228 415Q173 360 173 261Q173 193 200 145Q236 81 309 81Q393 81 439 152Q475 209 475 304V560Z" />
<glyph unicode="b" glyph-name="b" horiz-adv-x="727" d="M119 0V1365H228V970Q293 1058 406 1058Q636 1058 636 703V335Q636 162 588 80Q562 34 513 7T408 -20Q285 -20 216 89L187 0H119ZM527 338V690Q527 802 510 859Q483 949 387 949Q310 949 272 888Q228 817
228 662V376Q228 89 388 89Q468 89 502 161Q527 216 527 338Z" />
<glyph unicode="c" glyph-name="c" horiz-adv-x="651" d="M487 329L597 301Q597 288 597 281Q597 134 532 55Q469 -20 345 -20Q222 -20 157 55Q110 111 99 198Q91 267 91 356V682Q91 834 113 901Q146 1004 246 1041Q293 1058 345 1058Q430 1058 491 1017T577 901Q592
853 593 760L487 731Q485 820 472 860Q441 956 344 956Q260 956 228 891Q200 835 200 710V328Q200 203 228 147Q261 82 346 82Q489 82 489 291Q489 303 487 329Z" />
<glyph unicode="d" glyph-name="d" horiz-adv-x="727" d="M608 0H499V68Q434 -20 321 -20Q263 -20 214 6T139 80Q91 162 91 335V703Q91 1058 321 1058Q434 1058 499 970V1365H608V0ZM499 376V662Q499 817 455 888Q417 949 340 949Q244 949 217 859Q200 802 200
690V338Q200 216 225 161Q259 89 339 89Q499 89 499 376Z" />
<glyph unicode="e" glyph-name="e" horiz-adv-x="697" d="M493 328L602 301Q603 283 603 274Q603 211 585 151T537 55Q499 9 423 -11Q386 -20 348 -20Q224 -20 158 55Q110 110 99 198Q91 266 91 355V682Q91 834 113 901Q147 1004 248 1041Q295 1058 348 1058Q472
1058 538 983Q586 927 597 840Q605 771 605 682V529H200V327Q200 202 228 147Q262 82 348 82Q495 82 495 287Q495 300 493 328ZM496 625V710Q496 835 468 890Q434 955 348 955Q262 955 228 890Q200 835 200 710V625H496Z" />
<glyph unicode="f" glyph-name="f" horiz-adv-x="446" d="M431 1038V942H253V0H144V942H20V1038H144Q143 1185 174 1253Q203 1317 262 1349Q317 1379 381 1379Q408 1379 445 1376L462 1271Q421 1277 396 1277Q302 1277 269 1187Q252 1141 253 1038H431Z" />
<glyph unicode="g" glyph-name="g" horiz-adv-x="727" d="M608 1038V11Q608 -167 565 -239Q534 -290 476 -319T345 -348Q174 -348 107 -196L205 -127Q230 -239 345 -239Q430 -239 469 -182Q499 -137 499 -36V68Q434 -21 321 -21Q264 -21 215 6T140 79Q91 165 91
335V703Q91 876 139 958Q165 1004 214 1031T321 1058Q434 1058 499 970V1038H608ZM200 700V348Q200 236 217 178Q244 88 340 88Q417 88 455 150Q499 220 499 376V662Q499 949 339 949Q259 949 225 877Q200 822 200 700Z" />
<glyph unicode="h" glyph-name="h" horiz-adv-x="741" d="M119 1365H228V956Q309 1058 424 1058Q478 1058 526 1034T599 970Q627 925 632 861Q636 808 636 733V0H527V712Q527 820 523 845Q506 956 398 956Q228 956 228 701V0H119V1365Z" />
<glyph unicode="i" glyph-name="i" horiz-adv-x="401" d="M255 1038V0H146V1038H255ZM201 1365Q235 1365 259 1341Q283 1317 283 1283Q283 1249 259 1225Q235 1201 200 1201Q166 1201 143 1225Q119 1250 119 1283Q119 1316 143 1341Q166 1365 201 1365Z" />
<glyph unicode="j" glyph-name="j" horiz-adv-x="347" d="M228 1038V-11Q228 -188 167 -262Q101 -342 -15 -342Q-28 -342 -55 -341L-81 -237Q-51 -240 -31 -240Q12 -240 46 -219T96 -164Q119 -112 119 -13V1038H228ZM174 1365Q208 1365 232 1341Q256 1317 256
1283Q256 1249 232 1225Q208 1201 173 1201Q139 1201 116 1225Q92 1250 92 1283Q92 1316 116 1341Q139 1365 174 1365Z" />
<glyph unicode="k" glyph-name="k" horiz-adv-x="709" d="M119 0V1365H228V570L508 1038H635L335 559L706 0H566L228 525V0H119Z" />
<glyph unicode="l" glyph-name="l" horiz-adv-x="347" d="M119 0V1365H228V0H119Z" />
<glyph unicode="m" glyph-name="m" horiz-adv-x="1149" d="M119 1038H228V956Q309 1058 422 1058Q508 1058 565 1004Q588 982 614 933Q699 1058 831 1058Q891 1058 940 1031T1013 957Q1037 909 1041 846Q1044 794 1044 723V0H935V712Q935 820 931 845Q913 956
806 956Q714 956 672 885Q636 825 636 701V0H527V712Q527 820 523 845Q506 956 398 956Q228 956 228 701V0H119V1038Z" />
<glyph unicode="n" glyph-name="n" horiz-adv-x="741" d="M119 1038H228V956Q309 1058 424 1058Q478 1058 526 1034T599 970Q627 925 632 861Q636 808 636 733V0H527V712Q527 820 523 845Q506 956 398 956Q228 956 228 701V0H119V1038Z" />
<glyph unicode="o" glyph-name="o" horiz-adv-x="707" d="M615 682V356Q615 203 593 137Q558 34 455 -3Q407 -20 353 -20Q226 -20 160 55Q110 111 99 198Q91 266 91 356V682Q91 835 113 901Q148 1004 251 1041Q299 1058 353 1058Q479 1058 546 983Q596 928 607
840Q615 772 615 682ZM200 710V328Q200 202 229 147Q264 82 353 82Q442 82 477 147Q506 202 506 328V710Q506 836 477 891Q442 956 353 956Q264 956 229 891Q200 836 200 710Z" />
<glyph unicode="p" glyph-name="p" horiz-adv-x="727" d="M119 1038H228V970Q293 1058 406 1058Q464 1058 512 1032T588 958Q636 876 636 703V335Q636 165 587 79Q561 33 512 6T406 -21Q293 -21 228 68V-328H119V1038ZM228 662V376Q228 220 272 150Q310 88 387
88Q483 88 510 178Q527 236 527 348V700Q527 822 502 877Q468 949 388 949Q228 949 228 662Z" />
<glyph unicode="q" glyph-name="q" horiz-adv-x="727" d="M608 1038V-328H499V68Q434 -21 321 -21Q264 -21 215 6T140 79Q91 165 91 335V703Q91 877 139 958Q165 1004 214 1031T320 1058Q443 1058 511 949L540 1038H608ZM200 700V348Q200 236 217 178Q244 88 340
88Q417 88 455 150Q499 220 499 376V662Q499 949 339 949Q259 949 225 877Q200 822 200 700Z" />
<glyph unicode="r" glyph-name="r" horiz-adv-x="500" d="M119 0V1038H228V923Q295 1045 411 1045Q452 1045 490 1023L450 905Q407 921 378 921Q283 921 248 819Q228 761 228 649V0H119Z" />
<glyph unicode="s" glyph-name="s" horiz-adv-x="647" d="M65 298L174 330Q174 305 174 291Q174 82 324 82Q409 82 446 139Q473 182 473 244Q473 333 411 398Q386 424 289 508Q183 600 146 656Q97 733 97 830Q97 938 161 999Q223 1058 337 1058Q475 1058 532 967Q565
913 565 832Q565 824 565 808L455 776Q455 850 444 883Q418 956 332 956Q269 956 237 918Q206 883 206 829Q206 751 276 673Q311 634 436 526Q516 456 547 397Q583 329 583 243Q583 137 531 68Q462 -21 318 -21Q197 -21 133 52Q64 130 64 261Q64 273 65 298Z" />
<glyph unicode="t" glyph-name="t" horiz-adv-x="480" d="M459 1038V942H273V279Q273 166 305 132Q340 94 414 94Q430 94 464 96L432 0Q353 0 323 2Q236 11 200 69T164 259V942H44V1038H164V1272L273 1365V1038H459Z" />
<glyph unicode="u" glyph-name="u" horiz-adv-x="741" d="M622 0H513V82Q431 -20 317 -20Q262 -20 215 4T142 68Q114 113 109 177Q105 230 105 306V1038H214V326Q214 218 218 193Q235 82 343 82Q435 82 477 153Q513 213 513 337V1038H622V0Z" />
<glyph unicode="v" glyph-name="v" horiz-adv-x="649" d="M274 0L46 1038H161L280 485Q320 300 334 89Q342 276 384 485L495 1038H603L381 0H274Z" />
<glyph unicode="w" glyph-name="w" horiz-adv-x="1020" d="M966 1038L750 0H643L554 521Q532 656 508 903Q480 670 449 521L342 0H235L53 1038H164L252 517Q287 305 295 135L303 191Q334 410 356 517L464 1038H566L658 517Q681 382 703 135Q732 379 758 517L860
1038H966Z" />
<glyph unicode="x" glyph-name="x" horiz-adv-x="644" d="M23 0L268 538L41 1038H157L326 654L488 1038H600L378 538L620 0H504L320 426L137 0H23Z" />
<glyph unicode="y" glyph-name="y" horiz-adv-x="633" d="M590 1038L393 12Q354 -186 306 -251Q270 -298 210 -322Q162 -342 113 -342Q98 -342 67 -339L44 -236Q82 -240 108 -240Q180 -240 222 -185Q250 -148 278 -53L58 1038H170L280 460Q318 261 332 57Q354
311 381 460L482 1038H590Z" />
<glyph unicode="z" glyph-name="z" horiz-adv-x="580" d="M530 1038V956L161 96H497V0H37V82L403 942H96V1038H530Z" />
<glyph unicode="{" glyph-name="braceleft" horiz-adv-x="471" d="M444 1365V1330Q340 1323 297 1231Q280 1191 277 1146Q272 1091 272 1012V855Q272 746 263 693T228 600Q204 563 127 524Q192 500 223 461Q270 400 271 261V-40Q271 -122 281 -165T319 -239Q360
-283 444 -293V-327Q418 -328 414 -328Q306 -328 241 -255Q183 -190 183 -58V298Q183 374 174 412T142 471Q111 497 24 504V536Q98 537 134 582Q164 620 173 674Q183 732 183 803V1012Q183 1170 200 1218Q224 1295 273 1330T408 1365H444Z" />
<glyph unicode="|" glyph-name="bar" horiz-adv-x="1111" d="M510 1365H601V-341H510V1365Z" />
<glyph unicode="}" glyph-name="braceright" horiz-adv-x="471" d="M27 -328V-293Q131 -286 174 -194Q191 -154 194 -109Q199 -54 199 25V183Q199 292 208 344T243 437Q267 474 343 513Q279 537 248 576Q201 637 200 776V1078Q200 1159 190 1202T152 1277Q111
1320 27 1331V1365Q35 1365 57 1365Q105 1366 152 1346T230 1292Q288 1225 288 1095V739Q288 663 297 625T329 566Q360 540 447 533V501Q373 500 337 455Q290 395 288 234V25Q288 -132 270 -181Q240 -279 167 -310Q126 -328 63 -328H27Z" />
<glyph unicode="~" glyph-name="asciitilde" horiz-adv-x="909" d="M45 1229L28 1311Q148 1418 260 1418Q322 1418 449 1366Q568 1317 632 1317Q729 1317 844 1427L860 1349Q745 1221 607 1221Q538 1221 400 1274Q297 1311 276 1317T229 1323Q147 1323 45 1229Z" />
</font>
</defs>
</svg>
